<svg width="16" height="17" viewBox="0 0 16 17" fill="none" xmlns="http://www.w3.org/2000/svg">
<path d="M8.00128 1.40868C3.9803 1.40868 0.584015 4.80496 0.584015 8.82594C0.584015 12.8469 3.9803 16.2432 8.00128 16.2432C12.0223 16.2432 15.4185 12.8469 15.4185 8.82594C15.4185 4.80496 12.0223 1.40868 8.00128 1.40868ZM8.00128 14.5949C4.87449 14.5949 2.2323 11.9527 2.2323 8.82594C2.2323 5.69916 4.87449 3.05696 8.00128 3.05696C11.1281 3.05696 13.7703 5.69916 13.7703 8.82594C13.7703 11.9527 11.1281 14.5949 8.00128 14.5949Z" fill="white"/>
<path d="M8.8254 8.00181V4.70525H7.17712V8.00181V9.65009H8.8254H12.122V8.00181H8.8254Z" fill="white"/>
<path d="M12.3559 1.16718L13.5197 -1.58127e-06L16 2.47316L14.8361 3.64034L12.3559 1.16718Z" fill="white"/>
<path d="M3.63159 1.16722L1.16716 3.63872L-1.79025e-05 2.47488L2.46441 0.00338021L3.63159 1.16722Z" fill="white"/>
</svg>
