<svg width="26" height="36" viewBox="0 0 26 36" fill="none" xmlns="http://www.w3.org/2000/svg">
<path d="M7.2 32.4H18V36H7.2V32.4ZM21.4308 21.0816C23.2848 18.9108 25.2 16.6662 25.2 12.6C25.2 5.6538 19.5462 0 12.6 0C5.6538 0 0 5.6538 0 12.6C0 16.713 1.9206 18.9504 3.7818 21.114C4.4262 21.8664 5.094 22.6458 5.733 23.5422C5.9922 23.913 6.417 25.335 6.7968 27H5.4V30.6H7.4916H17.7066H19.8V27H18.4068C18.7902 25.3314 19.2168 23.9058 19.4742 23.535C20.1078 22.6296 20.781 21.843 21.4308 21.0816ZM16.5276 21.465C15.7464 22.5756 15.0948 25.2 14.7168 27H10.485C10.1088 25.1964 9.4554 22.5666 8.6652 21.456C7.9326 20.4264 7.1784 19.5462 6.5124 18.7704C4.7592 16.7292 3.6 15.3792 3.6 12.6C3.6 7.6374 7.6374 3.6 12.6 3.6C17.5626 3.6 21.6 7.6374 21.6 12.6C21.6 15.3378 20.4426 16.6932 18.693 18.7434C18.0216 19.5318 17.2602 20.4228 16.5276 21.465Z" fill="white"/>
</svg>
