<svg width="2.111vw" height="1.913vw" viewBox="0 0 32 29" fill="none" xmlns="http://www.w3.org/2000/svg">
<path d="M16 9.60001C12.5312 9.60001 9.60001 12.5312 9.60001 16C9.60001 19.4688 12.5312 22.4 16 22.4C19.4688 22.4 22.4 19.4688 22.4 16C22.4 12.5312 19.4688 9.60001 16 9.60001ZM16 19.2C14.296 19.2 12.8 17.704 12.8 16C12.8 14.296 14.296 12.8 16 12.8C17.704 12.8 19.2 14.296 19.2 16C19.2 17.704 17.704 19.2 16 19.2Z" fill="white"/>
<path d="M28.8 4.8H24.6624L20.3312 0.4688C20.032 0.168 19.6256 0 19.2 0H12.8C12.3744 0 11.968 0.168 11.6688 0.4688L7.3376 4.8H3.2C1.4352 4.8 0 6.2352 0 8V25.6C0 27.3648 1.4352 28.8 3.2 28.8H28.8C30.5648 28.8 32 27.3648 32 25.6V8C32 6.2352 30.5648 4.8 28.8 4.8ZM3.2 25.6V8H8C8.4256 8 8.832 7.832 9.1312 7.5312L13.4624 3.2H18.5376L22.8688 7.5312C23.168 7.832 23.5744 8 24 8H28.8L28.8032 25.6H3.2Z" fill="white"/>
</svg>
