<?xml version="1.0" standalone="no"?>
<!DOCTYPE svg PUBLIC "-//W3C//DTD SVG 20010904//EN"
 "http://www.w3.org/TR/2001/REC-SVG-20010904/DTD/svg10.dtd">
<svg version="1.0" xmlns="http://www.w3.org/2000/svg"
 width="250.000000pt" height="150.000000pt" viewBox="0 0 250.000000 150.000000"
 preserveAspectRatio="xMidYMid meet">

<g transform="translate(0.000000,150.000000) scale(0.100000,-0.100000)"
fill="#000000" stroke="none">
<path d="M138 1477 c-35 -21 -38 -21 -87 -5 l-51 16 0 -23 c0 -18 11 -27 54
-45 52 -21 56 -21 89 -5 18 8 49 31 67 50 l34 35 -35 -1 c-18 -1 -51 -11 -71
-22z"/>
<path d="M275 1459 c-42 -57 -109 -117 -139 -125 -18 -4 -41 3 -81 26 l-55 31
0 -30 c0 -20 5 -31 14 -31 7 0 30 -13 51 -30 66 -52 84 -45 200 75 137 143
143 143 323 -27 218 -205 258 -208 351 -21 92 185 135 195 290 67 113 -93 156
-94 308 -3 185 111 219 114 349 23 220 -155 253 -153 407 21 58 65 58 65 30
65 -22 0 -43 -15 -88 -61 -64 -65 -101 -89 -136 -89 -36 0 -99 35 -172 95
l-66 55 -125 0 -125 0 -76 -55 c-139 -99 -192 -97 -309 13 l-45 42 -95 0 -95
0 -56 -94 c-55 -93 -102 -146 -132 -146 -37 0 -95 41 -194 137 l-106 103 -99
0 -99 0 -30 -41z"/>
<path d="M590 1491 c0 -11 106 -103 137 -120 57 -30 105 -7 167 79 l36 50 -40
0 c-22 0 -40 -4 -40 -9 0 -5 -14 -20 -32 -32 -44 -32 -90 -28 -138 10 -36 29
-90 42 -90 22z"/>
<path d="M1260 1496 c0 -2 19 -18 42 -35 58 -43 107 -42 174 1 l49 33 -32 3
c-19 2 -43 -4 -55 -12 -28 -20 -58 -20 -84 -1 -17 13 -94 22 -94 11z"/>
<path d="M1981 1465 c62 -50 107 -62 151 -41 19 9 48 30 63 46 l29 30 -30 0
c-16 0 -47 -9 -67 -19 -39 -20 -86 -16 -111 9 -5 5 -25 10 -44 10 l-35 0 44
-35z"/>
<path d="M2410 1489 c0 -22 32 -77 60 -104 l30 -29 0 47 c0 36 -5 52 -25 72
-26 25 -65 34 -65 14z"/>
<path d="M2271 1336 c-152 -146 -167 -147 -356 -18 -50 33 -112 67 -138 74
-58 15 -102 2 -224 -66 -100 -56 -172 -80 -217 -72 -19 4 -72 35 -120 71 -100
74 -144 88 -184 58 -16 -11 -51 -68 -84 -134 -59 -119 -84 -149 -125 -149 -40
0 -76 25 -212 148 -72 66 -147 127 -167 137 -62 29 -85 15 -197 -118 -54 -64
-97 -91 -129 -81 -12 3 -38 24 -59 45 -21 22 -43 39 -49 39 -5 0 -10 -18 -10
-40 0 -28 4 -40 15 -40 8 0 29 -13 47 -28 69 -60 93 -52 208 68 53 55 96 91
114 96 45 11 98 -23 235 -151 114 -106 169 -145 204 -145 33 0 77 53 122 148
25 53 58 109 73 125 45 47 98 35 198 -43 118 -95 165 -99 294 -28 158 88 182
98 227 98 58 0 91 -15 193 -89 169 -121 198 -119 350 25 55 52 106 94 112 92
7 -3 16 -18 20 -34 4 -16 26 -47 48 -69 40 -39 40 -39 40 -13 0 14 -7 28 -15
31 -22 9 -68 84 -74 124 -3 20 -12 38 -18 40 -7 3 -62 -43 -122 -101z"/>
<path d="M1675 1232 c-27 -15 -73 -44 -101 -65 -65 -47 -131 -77 -169 -77 -41
0 -105 31 -173 84 -73 57 -113 76 -155 76 -50 0 -79 -29 -132 -130 -108 -211
-141 -212 -344 -11 -90 89 -151 131 -189 131 -25 0 -85 -40 -142 -95 -95 -91
-153 -113 -210 -80 -47 27 -60 20 -60 -32 l0 -48 48 -3 c79 -5 106 6 222 88
62 44 127 82 145 86 51 9 98 -19 183 -113 87 -94 152 -143 193 -143 37 0 77
42 134 142 54 95 80 126 115 140 45 17 97 -1 191 -69 192 -138 218 -137 414
11 60 46 113 79 134 82 52 10 96 -19 169 -111 123 -155 172 -156 357 -4 l87
72 54 -26 54 -27 0 28 c0 21 -11 34 -45 57 -25 17 -45 33 -45 38 0 24 -49 -2
-124 -67 -96 -82 -138 -106 -188 -106 -43 0 -77 21 -171 109 -43 39 -89 76
-103 81 -45 17 -97 11 -149 -18z"/>
<path d="M1805 1135 c-16 -8 -78 -57 -137 -109 -107 -93 -158 -126 -196 -126
-44 0 -110 34 -202 104 -195 147 -248 141 -362 -39 -50 -78 -108 -135 -139
-135 -36 0 -62 20 -164 126 -99 103 -100 104 -147 104 -78 0 -161 -33 -255
-101 -86 -62 -138 -88 -180 -89 -21 0 -23 -5 -23 -49 l0 -50 32 9 c17 5 73 41
123 80 111 84 156 105 254 119 100 13 124 2 198 -92 61 -79 107 -117 139 -117
36 0 84 40 132 107 26 37 68 89 93 115 41 42 51 48 88 48 55 0 107 -28 196
-105 90 -78 158 -123 201 -131 49 -9 98 20 204 122 119 114 185 164 216 164
39 0 70 -44 104 -146 18 -52 44 -109 58 -126 24 -28 29 -30 76 -24 93 11 211
89 251 167 19 36 36 41 90 25 l45 -14 0 32 c0 31 -4 34 -51 49 l-50 17 -64
-64 c-70 -68 -159 -122 -221 -131 -56 -9 -84 16 -145 136 -64 124 -103 154
-164 124z"/>
<path d="M1844 994 c-21 -14 -88 -74 -149 -133 -250 -243 -266 -244 -459 -35
-102 110 -136 134 -187 134 -47 0 -75 -23 -148 -119 -134 -175 -193 -185 -284
-49 -60 90 -79 103 -148 101 -69 -3 -192 -42 -267 -85 -29 -16 -79 -54 -111
-84 -32 -30 -66 -54 -75 -54 -12 0 -16 -10 -16 -40 0 -39 1 -40 23 -29 12 7
49 37 82 67 71 65 187 125 291 148 120 26 148 13 237 -112 82 -115 139 -98
282 85 113 145 162 140 289 -29 104 -139 148 -180 193 -180 34 0 134 73 258
190 233 219 293 232 324 68 18 -97 41 -171 58 -190 12 -13 32 -18 76 -18 121
0 186 40 240 150 32 64 33 65 72 64 22 0 48 -4 58 -8 14 -7 17 -3 17 26 0 32
-3 36 -40 47 -57 17 -76 8 -105 -52 -52 -104 -117 -147 -232 -155 l-72 -5 -20
34 c-11 18 -25 58 -31 89 -29 144 -56 200 -99 200 -10 0 -36 -12 -57 -26z"/>
<path d="M1825 843 c-41 -22 -90 -61 -219 -176 -118 -105 -173 -143 -223 -153
-40 -8 -83 29 -175 153 -83 111 -119 143 -160 143 -33 0 -52 -17 -203 -184
-52 -56 -65 -66 -94 -66 -45 0 -89 29 -145 94 -67 79 -105 100 -168 93 -66 -8
-160 -53 -279 -133 -54 -37 -103 -63 -109 -59 -6 3 -9 1 -8 -7 2 -7 -7 -14
-19 -16 -18 -3 -23 -10 -23 -33 0 -59 67 -33 240 96 74 55 154 95 189 95 39 0
100 -35 176 -100 39 -33 89 -67 113 -77 40 -15 46 -15 76 0 18 8 55 41 82 73
100 118 140 154 169 154 41 0 83 -33 140 -109 28 -36 72 -90 99 -118 40 -44
55 -53 83 -53 48 0 96 28 186 107 176 154 204 176 245 195 79 36 106 14 167
-139 20 -51 49 -104 63 -119 26 -25 30 -26 109 -21 112 7 175 40 220 117 48
84 59 93 104 87 38 -5 39 -5 39 28 0 36 -12 45 -64 45 -37 0 -50 -12 -85 -83
-43 -85 -118 -126 -233 -127 -61 0 -68 2 -88 27 -11 15 -35 74 -53 131 -44
146 -77 175 -152 135z"/>
<path d="M1748 660 c-21 -11 -83 -63 -137 -114 -167 -158 -226 -186 -288 -140
-16 12 -64 65 -108 119 -90 110 -130 138 -177 124 -39 -11 -58 -28 -125 -111
-57 -72 -95 -98 -140 -98 -35 0 -115 37 -190 88 -68 46 -127 76 -165 86 -44
10 -92 -17 -186 -104 -105 -98 -131 -113 -188 -108 -41 3 -44 2 -44 -23 0 -20
8 -29 39 -42 60 -27 92 -9 178 100 39 49 83 95 97 102 46 25 108 8 269 -73
132 -66 159 -76 204 -76 57 0 60 2 180 133 48 53 54 57 97 57 51 0 63 -10 189
-153 127 -143 150 -141 327 29 136 130 172 152 223 130 37 -16 66 -46 130
-137 25 -37 61 -79 79 -94 31 -27 35 -27 128 -23 139 7 214 44 262 129 20 36
53 59 83 59 23 0 20 76 -2 78 -37 1 -71 -21 -93 -61 -33 -60 -49 -76 -105
-105 -41 -21 -68 -27 -145 -30 l-96 -4 -35 38 c-19 22 -53 73 -76 114 -67 122
-113 149 -185 110z"/>
<path d="M1015 481 c-16 -10 -54 -46 -84 -81 -72 -83 -103 -96 -181 -76 -33 9
-115 41 -182 72 -68 31 -151 63 -184 72 -58 15 -63 15 -89 -2 -15 -10 -43 -45
-63 -78 -96 -157 -120 -176 -175 -134 -18 14 -39 26 -45 26 -16 0 -15 -60 1
-60 6 0 25 -14 41 -30 54 -56 85 -38 152 89 50 95 83 131 121 131 38 0 107
-24 268 -93 136 -59 196 -74 242 -62 17 4 61 41 108 91 71 74 85 84 115 84 50
0 85 -25 175 -124 88 -96 128 -126 171 -126 41 0 73 24 182 138 143 149 161
149 305 -1 54 -56 110 -109 125 -119 33 -22 111 -23 203 -4 91 20 140 47 189
105 23 27 53 52 66 55 20 5 24 13 24 41 0 47 -22 46 -67 -2 -19 -21 -47 -51
-63 -68 -41 -44 -110 -66 -221 -72 -122 -7 -133 -1 -239 122 -45 53 -95 102
-111 110 -66 35 -120 8 -224 -110 -81 -92 -127 -125 -179 -125 -39 0 -46 5
-151 114 -60 62 -120 119 -132 125 -31 16 -64 14 -98 -8z"/>
<path d="M1025 338 c-11 -6 -56 -48 -100 -94 -76 -80 -82 -84 -123 -84 -49 0
-134 31 -264 97 -213 107 -234 103 -336 -67 -68 -113 -92 -128 -144 -88 -57
43 -58 43 -58 1 0 -35 4 -40 45 -63 66 -36 86 -25 172 99 39 58 83 111 98 118
37 20 74 10 185 -50 208 -111 243 -127 277 -127 50 0 69 13 163 111 75 79 89
89 120 89 50 0 85 -25 175 -124 88 -96 128 -126 172 -126 38 0 76 29 186 144
138 143 156 142 307 -14 58 -60 118 -114 133 -119 39 -15 111 -14 200 3 95 18
141 38 187 80 21 19 47 37 59 41 17 5 21 14 21 51 0 24 -2 44 -5 44 -16 0 -63
-32 -90 -60 -16 -18 -47 -41 -69 -52 -78 -40 -260 -62 -309 -37 -12 6 -69 60
-127 119 -152 157 -169 158 -311 9 -107 -113 -142 -139 -182 -139 -46 0 -79
24 -172 125 -111 121 -154 144 -210 113z"/>
<path d="M1015 181 c-16 -10 -63 -55 -103 -100 -72 -80 -73 -81 -44 -81 22 0
43 14 88 59 93 94 135 93 228 0 49 -48 65 -59 88 -57 27 3 26 5 -49 86 -104
114 -145 132 -208 93z"/>
<path d="M1685 182 c-17 -11 -63 -54 -102 -98 -70 -77 -71 -79 -45 -82 22 -2
39 9 88 57 93 93 135 94 228 0 45 -45 66 -59 89 -59 29 0 29 0 -34 72 -110
124 -161 148 -224 110z"/>
<path d="M303 156 c-21 -19 -57 -62 -81 -95 l-43 -61 28 1 c22 0 37 12 66 50
73 95 128 96 240 4 62 -52 70 -55 119 -54 45 0 50 2 35 12 -10 7 -55 38 -100
70 -99 71 -167 107 -202 107 -14 0 -41 -14 -62 -34z"/>
<path d="M2451 37 l-43 -32 42 -3 c23 -2 44 -1 47 1 2 3 3 19 1 35 l-3 30 -44
-31z"/>
<path d="M340 27 l-35 -22 48 -3 c26 -2 67 -2 90 0 l42 3 -35 22 c-19 13 -44
23 -55 23 -11 0 -36 -10 -55 -23z"/>
<path d="M1010 27 l-35 -22 48 -3 c26 -2 68 -2 95 0 l47 3 -35 22 c-19 13 -46
23 -60 23 -14 0 -41 -10 -60 -23z"/>
<path d="M1680 27 l-35 -22 48 -3 c26 -2 68 -2 95 0 l47 3 -36 23 c-46 28 -75
28 -119 -1z"/>
</g>
</svg>
