<svg width="2.375vw" height="2.309vw" viewBox="0 0 36 35" fill="none" xmlns="http://www.w3.org/2000/svg">
<path d="M5.31215 28.3315V35L7.99479 33.3904L16.4269 28.3315H24.79C26.7431 28.3315 28.3315 26.7431 28.3315 24.79V10.6243C28.3315 8.6712 26.7431 7.08287 24.79 7.08287H3.54143C1.58833 7.08287 0 8.6712 0 10.6243V24.79C0 26.7431 1.58833 28.3315 3.54143 28.3315H5.31215ZM3.54143 10.6243H24.79V24.79H15.446L8.85359 28.7458V24.79H3.54143V10.6243Z" fill="white"/>
<path d="M31.8729 0H30.1022H26.5572H10.6243C8.67119 0 7.08286 1.58833 7.08286 3.54143H25.8277H28.3315C30.2846 3.54143 31.8729 5.12977 31.8729 7.08287V9.58666V17.7072V21.2486C33.826 21.2486 35.4143 19.6603 35.4143 17.7072V8.85359V5.31215V3.54143C35.4143 1.58833 33.826 0 31.8729 0Z" fill="white"/>
</svg>
