<svg width="2.375vw" height="2.375vw" viewBox="0 0 36 36" fill="none" xmlns="http://www.w3.org/2000/svg">
<path d="M32.8371 17.5102L34.7713 14.1673C35.2549 13.328 34.9676 12.2575 34.1318 11.774L30.7854 9.83968V5.98514C30.7854 5.01625 30.0022 4.23308 29.0333 4.23308H25.1805L23.248 0.888394C23.015 0.487172 22.6313 0.192826 22.1845 0.0719335C21.736 -0.0507108 21.2577 0.0141157 20.8547 0.24714L17.5083 2.18142L14.1618 0.245388C13.3226 -0.239933 12.2521 0.049157 11.7685 0.886642L9.83423 4.23308H5.98145C5.01256 4.23308 4.22939 5.01625 4.22939 5.98514V9.83792L0.88295 11.7722C0.479976 12.0052 0.187382 12.3889 0.0682417 12.8375C-0.0508985 13.2877 0.0121756 13.7643 0.243448 14.1673L2.17772 17.5102L0.243448 20.8531C0.0104235 21.2561 -0.0526504 21.7344 0.0664898 22.1847C0.18563 22.6332 0.478224 23.0169 0.881198 23.2482L4.22764 25.1825V29.0353C4.22764 30.0042 5.01081 30.7873 5.9797 30.7873H9.83423L11.7685 34.1338C12.0015 34.535 12.3852 34.8276 12.8338 34.9502C12.9827 34.9888 13.1334 35.0098 13.2858 35.0098C13.5907 35.0098 13.8938 34.9292 14.1636 34.7733L17.5065 32.839L20.853 34.7733C21.2542 35.0063 21.7342 35.0676 22.1828 34.9485C22.6313 34.8293 23.015 34.5367 23.2463 34.1338L25.1788 30.7873H29.0316C30.0005 30.7873 30.7836 30.0042 30.7836 29.0353V25.1825L34.1301 23.2482C34.9676 22.7629 35.2549 21.6906 34.7696 20.8531L32.8371 17.5102ZM13.1264 8.73237C14.5771 8.73237 15.7544 9.90976 15.7544 11.3605C15.7544 12.8112 14.5771 13.9886 13.1264 13.9886C11.6757 13.9886 10.4983 12.8112 10.4983 11.3605C10.4983 9.90976 11.6757 8.73237 13.1264 8.73237ZM13.652 25.5522L10.8487 23.4514L21.361 9.43495L24.1643 11.5357L13.652 25.5522ZM21.8867 26.253C20.436 26.253 19.2586 25.0756 19.2586 23.6249C19.2586 22.1742 20.436 20.9968 21.8867 20.9968C23.3374 20.9968 24.5148 22.1742 24.5148 23.6249C24.5148 25.0756 23.3374 26.253 21.8867 26.253Z" fill="white"/>
</svg>
