<?xml version="1.0" standalone="no"?>
<!DOCTYPE svg PUBLIC "-//W3C//DTD SVG 20010904//EN"
 "http://www.w3.org/TR/2001/REC-SVG-20010904/DTD/svg10.dtd">
<svg version="1.0" xmlns="http://www.w3.org/2000/svg"
 width="4096.000000pt" height="1358.000000pt" viewBox="0 0 4096.000000 1358.000000"
 preserveAspectRatio="xMidYMid meet">

<g transform="translate(0.000000,1358.000000) scale(0.100000,-0.100000)" stroke="none">
<path d="M0 8897 l0 -4682 1062 -1061 1063 -1062 1747 -1046 1747 -1046 1521
0 1520 0 1 133 c1 150 11 302 20 312 9 8 112 -31 677 -256 l473 -189 3042 0
3042 0 330 328 c535 532 827 814 835 805 8 -8 130 -580 197 -924 l38 -196 275
-6 c151 -4 890 -7 1642 -7 l1367 0 3 550 c2 412 6 552 15 561 17 17 98 -58
674 -629 l487 -482 1633 2 1634 3 67 330 c141 690 163 785 179 785 17 0 238
-211 703 -671 l454 -449 1867 0 1867 0 471 466 c591 584 674 661 690 645 9 -9
13 -148 15 -561 l3 -550 1055 0 1055 0 467 333 c892 637 1138 805 1153 790 8
-8 26 -663 29 -1070 l0 -53 1168 0 1167 0 1753 1172 1752 1173 0 3510 0 3510
-1052 1052 -1053 1053 -1260 2 c-706 2 -1268 7 -1278 12 -10 5 -24 20 -30 35
-7 18 -12 331 -15 1044 l-4 1017 -2216 0 -2217 0 -1055 -1055 -1055 -1055
-1174 0 -1174 0 -563 -560 c-310 -308 -568 -560 -573 -560 -12 0 -19 192 -27
695 -3 226 -7 411 -7 412 -1 0 -384 4 -852 7 -467 4 -936 9 -1041 12 l-192 6
-7 1049 -7 1049 -3973 0 -3972 0 -6 -1007 c-3 -555 -10 -1024 -14 -1043 -8
-30 -14 -36 -48 -44 -24 -6 -1938 -11 -4785 -13 l-4745 -3 -1055 1055 -1055
1055 -2227 0 -2228 0 0 -4683z m3504 3661 c3 -46 8 -515 12 -1043 3 -528 8
-962 10 -964 4 -4 1341 -19 1817 -20 l267 -1 -2 -1282 -3 -1283 -635 -6 c-349
-3 -818 -7 -1042 -8 l-408 -1 0 -1159 0 -1159 1045 -7 1045 -7 0 -1283 0
-1282 -1517 -6 -1518 -5 -823 822 -823 822 7 3977 7 3977 1278 0 1277 0 6 -82z
m16156 -497 l0 -579 -452 -7 c-249 -4 -820 -5 -1269 -3 -673 2 -819 5 -832 17
-15 12 -17 53 -17 410 0 218 3 474 7 569 l6 172 1279 0 1278 0 0 -579z m3514
217 c3 -200 8 -669 12 -1043 3 -374 8 -682 10 -684 3 -3 470 -7 1039 -9 l1035
-5 0 -1287 0 -1287 -172 -6 c-95 -4 -563 -7 -1040 -7 l-868 0 0 -1160 0 -1160
979 0 c538 0 1006 -3 1040 -6 l61 -7 0 -1288 0 -1289 -1517 0 -1518 0 -817
817 -818 818 0 1785 c0 982 3 2774 7 3983 l6 2197 1277 0 1278 0 6 -362z
m12160 -505 c7 -859 15 -1195 29 -1209 18 -19 313 -23 1627 -23 l1405 -1 818
-825 818 -824 -7 -2921 -7 -2920 -1277 0 -1277 0 -6 127 c-4 71 -7 461 -7 868
0 407 -3 1452 -7 2323 l-6 1582 -1042 0 -1042 0 -6 -1792 c-4 -986 -7 -2092
-7 -2457 l0 -664 -1247 7 c-687 3 -1264 9 -1284 12 l-36 6 -7 96 c-8 127 -8
5103 1 7555 l6 1927 1277 0 1278 0 6 -867z m-26212 -1252 c3 -3 10 -1104 15
-2446 l8 -2440 455 0 455 0 5 2447 c3 1345 7 2449 10 2452 3 2 582 2 1286 -1
l1281 -6 6 -1446 c4 -795 7 -1779 7 -2186 0 -407 3 -858 7 -1002 l6 -263 452
0 453 0 4 2449 c2 1348 6 2452 8 2455 3 2 582 2 1286 -1 l1281 -6 7 -2921 7
-2920 -823 -823 -823 -823 -3980 2 -3980 3 -3 3735 c-1 2054 0 3740 2 3747 4
9 299 11 1283 6 703 -3 1281 -8 1285 -12z m9795 9 l743 0 0 -3740 0 -3740
-887 0 c-489 0 -1067 -3 -1285 -7 l-398 -6 0 3753 0 3753 542 -6 c298 -4 876
-7 1285 -7z m12913 -1280 l0 -1290 -1077 -1 c-593 0 -1270 -4 -1505 -8 -373
-6 -430 -9 -444 -23 -14 -14 -16 -121 -16 -1138 0 -1024 2 -1124 16 -1139 15
-14 99 -17 859 -22 463 -4 1140 -7 1505 -8 l662 -1 0 -1290 0 -1290 -1992 0
-1993 0 -812 812 -813 813 0 2125 0 2125 812 812 813 813 1992 0 1993 0 0
-1290z"/>
</g>
</svg>
